<svg version="1.1" id="Layer_1" xmlns="http://www.w3.org/2000/svg" xmlns:xlink="http://www.w3.org/1999/xlink" x="0px" y="0px"
	 viewBox="0 0 70 60" style="enable-background:new 0 0 70 60;" xml:space="preserve">
<style type="text/css">
	.st0{clip-path:url(#SVGID_2_);}
</style>
<g>
	<defs>
		<path id="SVGID_1_" d="M35,26.7l9-12l10.7,28.5l-9.4,3.5L41,35.3l-6,8l-6-8l-4.3,11.5l-9.4-3.5L26,14.7L35,26.7z M55,50
			c3.2-4.3,5-9.6,5-15c0-13.8-11.2-25-25-25S10,21.2,10,35c0,5.4,1.8,10.7,5,15H55z M35,0c19.3,0,35,15.7,35,35
			c0,8.6-3.2,16.9-8.9,23.3L59.6,60H10.4l-1.5-1.7C3.2,51.9,0,43.6,0,35C0,15.7,15.7,0,35,0z"/>
	</defs>
	<clipPath id="SVGID_2_">
		<use xlink:href="#SVGID_1_"  style="overflow:visible;"/>
	</clipPath>
	<rect fill="#688696" x="-5" y="-5" class="st0" width="80" height="70"/>
</g>
</svg>
