<svg version="1.1" id="Layer_1" xmlns="http://www.w3.org/2000/svg" xmlns:xlink="http://www.w3.org/1999/xlink" x="0px" y="0px"
	 viewBox="0 0 28 32" style="enable-background:new 0 0 28 32;" xml:space="preserve">
<style type="text/css">
	.st0{clip-path:url(#SVGID_2_);}
</style>
<g>
	<defs>
		<path id="SVGID_1_" d="M17.1,16.5c-1.7,1.7-4.5,1.7-6.2,0s-1.7-4.5,0-6.2c1.7-1.7,4.5-1.7,6.2,0C18.8,12,18.8,14.8,17.1,16.5z
			 M23.5,3.9c-5.2-5.2-13.7-5.2-19,0c-5.2,5.2-5.2,13.7,0,19l8.8,8.8c0.4,0.4,1,0.4,1.4,0l8.8-8.8C28.7,17.7,28.7,9.2,23.5,3.9z"/>
	</defs>
	<clipPath id="SVGID_2_">
		<use xlink:href="#SVGID_1_"  style="overflow:visible;"/>
	</clipPath>
	<rect fill="#55adf2" x="-4.4" y="-5" class="st0" width="36.8" height="42"/>
</g>
</svg>
