<?xml version="1.0" encoding="utf-8"?>
<!-- Generator: Adobe Illustrator 23.0.1, SVG Export Plug-In . SVG Version: 6.00 Build 0)  -->
<svg version="1.1" id="Layer_1" xmlns="http://www.w3.org/2000/svg" xmlns:xlink="http://www.w3.org/1999/xlink" x="0px" y="0px"
	 viewBox="0 0 92 92" style="enable-background:new 0 0 92 92;" xml:space="preserve">
<style type="text/css">
	.st0{clip-path:url(#SVGID_2_);}
</style>
<g>
	<defs>
		<path id="SVGID_1_" d="M50.4,44.7c0-0.2,0.1-0.5,0.1-0.7V24.4c0-2.5-2-4.5-4.5-4.5s-4.5,2-4.5,4.5V44c0,0.4,0,4.7,1.4,6l13.9,12.5
			c0.9,0.8,1.9,1.1,3,1.1c1.2,0,2.5-0.5,3.4-1.5c1.7-1.9,1.5-4.7-0.3-6.4L50.4,44.7z M46,1c24.8,0,45,20.2,45,45S70.8,91,46,91
			S1,70.8,1,46S21.2,1,46,1z"/>
	</defs>
	<clipPath id="SVGID_2_">
		<use xlink:href="#SVGID_1_"  style="overflow:visible;"/>
	</clipPath>
	<rect fill="#688696" x="-4" y="-4" class="st0" width="100" height="100"/>
</g>
</svg>
